# xmcd
#
# Track frame offsets:
#	150
#	18478
#	41429
#	84452
#	116122
#	140400
#	180283
#	202748
#	233499
#	255600
#	282799
#
# Disc length: 4052 seconds
#
# Revision: 0
# Processed by: cddbd v1.5.2PL0 Copyright (c) Steve Scherf et al.
# Submitted via: audiograbber 1.83.01
#
DISCID=850fd20b
DTITLE=Grateful Dead - 92-06-28 Deer Creek Music Centre, Noblesville IN
DYEAR=1900
DGENRE=
TTITLE0=Help On The Way
TTITLE1=Slipknot!
TTITLE2=Franklin's Tower
TTITLE3=Wang Dang Doodle
TTITLE4=Just Like Tom Thumb's Blues
TTITLE5=To Lay Me Down
TTITLE6=El Paso
TTITLE7=New Speedway Boogie
TTITLE8=Smokestack Lightning
TTITLE9=China Cat Sunflower
TTITLE10=I Know You Rider
EXTD=
EXTT0=
EXTT1=
EXTT2=
EXTT3=
EXTT4=
EXTT5=
EXTT6=
EXTT7=
EXTT8=
EXTT9=
EXTT10=
PLAYORDER=
